<svg aria-roledescription="er" role="graphics-document document" viewBox="0 0 851.233154296875 606" style="max-width: 851.233px; background: rgb(23, 23, 25);" xmlns="http://www.w3.org/2000/svg" width="100%" id="export-svg"><style xmlns="http://www.w3.org/1999/xhtml">@import url("https://cdnjs.cloudflare.com/ajax/libs/font-awesome/6.2.0/css/all.min.css"); p {margin: 0;}</style><style>#export-svg{font-family:"trebuchet ms",verdana,arial,sans-serif;font-size:14px;fill:#ccc;}#export-svg .error-icon{fill:#a44141;}#export-svg .error-text{fill:#ddd;stroke:#ddd;}#export-svg .edge-thickness-normal{stroke-width:1px;}#export-svg .edge-thickness-thick{stroke-width:3.5px;}#export-svg .edge-pattern-solid{stroke-dasharray:0;}#export-svg .edge-thickness-invisible{stroke-width:0;fill:none;}#export-svg .edge-pattern-dashed{stroke-dasharray:3;}#export-svg .edge-pattern-dotted{stroke-dasharray:2;}#export-svg .marker{fill:lightgrey;stroke:lightgrey;}#export-svg .marker.cross{stroke:lightgrey;}#export-svg svg{font-family:"trebuchet ms",verdana,arial,sans-serif;font-size:14px;}#export-svg p{margin:0;}#export-svg .entityBox{fill:#1f2020;stroke:#ccc;}#export-svg .attributeBoxOdd{fill:hsl(0, 0%, 32%);stroke:#ccc;}#export-svg .attributeBoxEven{fill:hsl(0, 0%, 22%);stroke:#ccc;}#export-svg .relationshipLabelBox{fill:hsl(20, 1.5873015873%, 12.3529411765%);opacity:0.7;background-color:hsl(20, 1.5873015873%, 12.3529411765%);}#export-svg .relationshipLabelBox rect{opacity:0.5;}#export-svg .relationshipLine{stroke:lightgrey;}#export-svg .entityTitleText{text-anchor:middle;font-size:18px;fill:#ccc;}#export-svg #MD_PARENT_START{fill:#f5f5f5!important;stroke:lightgrey!important;stroke-width:1;}#export-svg #MD_PARENT_END{fill:#f5f5f5!important;stroke:lightgrey!important;stroke-width:1;}#export-svg .node .neo-node{stroke:#ccc;}#export-svg [data-look="neo"].node rect,#export-svg [data-look="neo"].cluster rect,#export-svg [data-look="neo"].node polygon{stroke:url(#export-svg-gradient);filter:drop-shadow( 1px 2px 2px rgba(185,185,185,1));}#export-svg [data-look="neo"].node rect,#export-svg [data-look="neo"].node polygon,#export-svg [data-look="neo"].node path{stroke:url(#export-svg-gradient);filter:drop-shadow( 1px 2px 2px rgba(185,185,185,1));}#export-svg [data-look="neo"].node .neo-line path{stroke:#cccccc;filter:none;}#export-svg [data-look="neo"].node circle{stroke:url(#export-svg-gradient);filter:drop-shadow( 1px 2px 2px rgba(185,185,185,1));}#export-svg [data-look="neo"].node circle .state-start{fill:#000000;}#export-svg [data-look="neo"].statediagram-cluster rect{fill:#1f2020;stroke:url(#export-svg-gradient);stroke-width:1px;}#export-svg [data-look="neo"].icon-shape .icon{fill:url(#export-svg-gradient);filter:drop-shadow( 1px 2px 2px rgba(185,185,185,1));}#export-svg [data-look="neo"].icon-shape .icon-neo path{stroke:url(#export-svg-gradient);filter:drop-shadow( 1px 2px 2px rgba(185,185,185,1));}#export-svg :root{--mermaid-font-family:"trebuchet ms",verdana,arial,sans-serif;}</style><g/><defs><marker orient="auto" markerHeight="240" markerWidth="190" refY="7" refX="0" id="MD_PARENT_START"><path d="M 18,7 L9,13 L1,7 L9,1 Z"/></marker></defs><defs><marker orient="auto" markerHeight="28" markerWidth="20" refY="7" refX="19" id="MD_PARENT_END"><path d="M 18,7 L9,13 L1,7 L9,1 Z"/></marker></defs><defs><marker orient="auto" markerHeight="18" markerWidth="18" refY="9" refX="0" id="ONLY_ONE_START"><path d="M9,0 L9,18 M15,0 L15,18" fill="none" stroke="gray"/></marker></defs><defs><marker orient="auto" markerHeight="18" markerWidth="18" refY="9" refX="18" id="ONLY_ONE_END"><path d="M3,0 L3,18 M9,0 L9,18" fill="none" stroke="gray"/></marker></defs><defs><marker orient="auto" markerHeight="18" markerWidth="30" refY="9" refX="0" id="ZERO_OR_ONE_START"><circle r="6" cy="9" cx="21" fill="white" stroke="gray"/><path d="M9,0 L9,18" fill="none" stroke="gray"/></marker></defs><defs><marker orient="auto" markerHeight="18" markerWidth="30" refY="9" refX="30" id="ZERO_OR_ONE_END"><circle r="6" cy="9" cx="9" fill="white" stroke="gray"/><path d="M21,0 L21,18" fill="none" stroke="gray"/></marker></defs><defs><marker orient="auto" markerHeight="36" markerWidth="45" refY="18" refX="18" id="ONE_OR_MORE_START"><path d="M0,18 Q 18,0 36,18 Q 18,36 0,18 M42,9 L42,27" fill="none" stroke="gray"/></marker></defs><defs><marker orient="auto" markerHeight="36" markerWidth="45" refY="18" refX="27" id="ONE_OR_MORE_END"><path d="M3,9 L3,27 M9,18 Q27,0 45,18 Q27,36 9,18" fill="none" stroke="gray"/></marker></defs><defs><marker orient="auto" markerHeight="36" markerWidth="57" refY="18" refX="18" id="ZERO_OR_MORE_START"><circle r="6" cy="18" cx="48" fill="white" stroke="gray"/><path d="M0,18 Q18,0 36,18 Q18,36 0,18" fill="none" stroke="gray"/></marker></defs><defs><marker orient="auto" markerHeight="36" markerWidth="57" refY="18" refX="39" id="ZERO_OR_MORE_END"><circle r="6" cy="18" cx="9" fill="white" stroke="gray"/><path d="M21,18 Q39,0 57,18 Q39,36 21,18" fill="none" stroke="gray"/></marker></defs><path marker-start="url(#ONLY_ONE_START)" marker-end="url(#ZERO_OR_MORE_END)" style="stroke: gray; fill: none;" d="M103.512,367.5L103.512,377.583C103.512,387.667,103.512,407.833,124.302,426.25C145.091,444.667,186.669,461.333,207.459,469.667L228.248,478" class="er relationshipLine"/><path marker-start="url(#ONLY_ONE_START)" marker-end="url(#ZERO_OR_MORE_END)" style="stroke: gray; fill: none;" d="M362.962,378L362.962,386.333C362.962,394.667,362.962,411.333,362.962,428C362.962,444.667,362.962,461.333,362.962,469.667L362.962,478" class="er relationshipLine"/><path marker-start="url(#ZERO_OR_MORE_START)" marker-end="url(#ONLY_ONE_END)" style="stroke: gray; fill: none;" d="M141.842,128L135.453,136.333C129.065,144.667,116.289,161.333,109.901,179.75C103.512,198.167,103.512,218.333,103.512,228.417L103.512,238.5" class="er relationshipLine"/><path marker-start="url(#ZERO_OR_MORE_START)" marker-end="url(#ONLY_ONE_END)" style="stroke: gray; fill: none;" d="M276.556,128L290.957,136.333C305.358,144.667,334.16,161.333,348.561,178C362.962,194.667,362.962,211.333,362.962,219.667L362.962,228" class="er relationshipLine"/><path marker-start="url(#ONE_OR_MORE_START)" marker-end="url(#ONLY_ONE_END)" style="stroke: gray; fill: none;" d="M612.053,357L599.352,368.833C586.652,380.667,561.251,404.333,534.697,424.5C508.143,444.667,480.437,461.333,466.584,469.667L452.731,478" class="er relationshipLine"/><path marker-start="url(#ZERO_OR_MORE_START)" marker-end="url(#ONLY_ONE_END)" style="stroke: gray; fill: none;" d="M691.61,357L696.343,368.833C701.077,380.667,710.543,404.333,715.277,424.5C720.01,444.667,720.01,461.333,720.01,469.667L720.01,478" class="er relationshipLine"/><g transform="translate(20,238.5 )" id="entity-CUSTOMER-7c659eae-ee79-5f5d-acd7-c418f8ad1d67"><rect height="129" width="167.0248565673828" y="0" x="0" class="er entityBox"/><text transform="translate(83.5124282836914,12)" style="dominant-baseline: middle; text-anchor: middle; font-size: 12px;" y="0" x="0" id="text-entity-CUSTOMER-7c659eae-ee79-5f5d-acd7-c418f8ad1d67" class="er entityLabel">CUSTOMER</text><rect height="21" width="60.751220703125" y="24" x="0" class="er attributeBoxOdd"/><text transform="translate(5,34.5)" style="dominant-baseline: middle; font-size: 10.2px;" y="0" x="0" id="text-entity-CUSTOMER-7c659eae-ee79-5f5d-acd7-c418f8ad1d67-attr-1-type" class="er entityLabel">INT</text><rect height="21" width="80.90753173828125" y="24" x="60.751220703125" class="er attributeBoxOdd"/><text transform="translate(65.751220703125,34.5)" style="dominant-baseline: middle; font-size: 10.2px;" y="0" x="0" id="text-entity-CUSTOMER-7c659eae-ee79-5f5d-acd7-c418f8ad1d67-attr-1-name" class="er entityLabel">id</text><rect height="21" width="25.366104125976562" y="24" x="141.65875244140625" class="er attributeBoxOdd"/><text transform="translate(146.65875244140625,34.5)" style="dominant-baseline: middle; font-size: 10.2px;" y="0" x="0" id="text-entity-CUSTOMER-7c659eae-ee79-5f5d-acd7-c418f8ad1d67-attr-1-key" class="er entityLabel">PK</text><rect height="21" width="60.751220703125" y="45" x="0" class="er attributeBoxEven"/><text transform="translate(5,55.5)" style="dominant-baseline: middle; font-size: 10.2px;" y="0" x="0" id="text-entity-CUSTOMER-7c659eae-ee79-5f5d-acd7-c418f8ad1d67-attr-2-type" class="er entityLabel">VARCHAR</text><rect height="21" width="80.90753173828125" y="45" x="60.751220703125" class="er attributeBoxEven"/><text transform="translate(65.751220703125,55.5)" style="dominant-baseline: middle; font-size: 10.2px;" y="0" x="0" id="text-entity-CUSTOMER-7c659eae-ee79-5f5d-acd7-c418f8ad1d67-attr-2-name" class="er entityLabel">first_name</text><rect height="21" width="25.366104125976562" y="45" x="141.65875244140625" class="er attributeBoxEven"/><text transform="translate(146.65875244140625,55.5)" style="dominant-baseline: middle; font-size: 10.2px;" y="0" x="0" id="text-entity-CUSTOMER-7c659eae-ee79-5f5d-acd7-c418f8ad1d67-attr-2-key" class="er entityLabel"/><rect height="21" width="60.751220703125" y="66" x="0" class="er attributeBoxOdd"/><text transform="translate(5,76.5)" style="dominant-baseline: middle; font-size: 10.2px;" y="0" x="0" id="text-entity-CUSTOMER-7c659eae-ee79-5f5d-acd7-c418f8ad1d67-attr-3-type" class="er entityLabel">VARCHAR</text><rect height="21" width="80.90753173828125" y="66" x="60.751220703125" class="er attributeBoxOdd"/><text transform="translate(65.751220703125,76.5)" style="dominant-baseline: middle; font-size: 10.2px;" y="0" x="0" id="text-entity-CUSTOMER-7c659eae-ee79-5f5d-acd7-c418f8ad1d67-attr-3-name" class="er entityLabel">last_name</text><rect height="21" width="25.366104125976562" y="66" x="141.65875244140625" class="er attributeBoxOdd"/><text transform="translate(146.65875244140625,76.5)" style="dominant-baseline: middle; font-size: 10.2px;" y="0" x="0" id="text-entity-CUSTOMER-7c659eae-ee79-5f5d-acd7-c418f8ad1d67-attr-3-key" class="er entityLabel"/><rect height="21" width="60.751220703125" y="87" x="0" class="er attributeBoxEven"/><text transform="translate(5,97.5)" style="dominant-baseline: middle; font-size: 10.2px;" y="0" x="0" id="text-entity-CUSTOMER-7c659eae-ee79-5f5d-acd7-c418f8ad1d67-attr-4-type" class="er entityLabel">VARCHAR</text><rect height="21" width="80.90753173828125" y="87" x="60.751220703125" class="er attributeBoxEven"/><text transform="translate(65.751220703125,97.5)" style="dominant-baseline: middle; font-size: 10.2px;" y="0" x="0" id="text-entity-CUSTOMER-7c659eae-ee79-5f5d-acd7-c418f8ad1d67-attr-4-name" class="er entityLabel">email</text><rect height="21" width="25.366104125976562" y="87" x="141.65875244140625" class="er attributeBoxEven"/><text transform="translate(146.65875244140625,97.5)" style="dominant-baseline: middle; font-size: 10.2px;" y="0" x="0" id="text-entity-CUSTOMER-7c659eae-ee79-5f5d-acd7-c418f8ad1d67-attr-4-key" class="er entityLabel">UK</text><rect height="21" width="60.751220703125" y="108" x="0" class="er attributeBoxOdd"/><text transform="translate(5,118.5)" style="dominant-baseline: middle; font-size: 10.2px;" y="0" x="0" id="text-entity-CUSTOMER-7c659eae-ee79-5f5d-acd7-c418f8ad1d67-attr-5-type" class="er entityLabel">VARCHAR</text><rect height="21" width="80.90753173828125" y="108" x="60.751220703125" class="er attributeBoxOdd"/><text transform="translate(65.751220703125,118.5)" style="dominant-baseline: middle; font-size: 10.2px;" y="0" x="0" id="text-entity-CUSTOMER-7c659eae-ee79-5f5d-acd7-c418f8ad1d67-attr-5-name" class="er entityLabel">mobile_number</text><rect height="21" width="25.366104125976562" y="108" x="141.65875244140625" class="er attributeBoxOdd"/><text transform="translate(146.65875244140625,118.5)" style="dominant-baseline: middle; font-size: 10.2px;" y="0" x="0" id="text-entity-CUSTOMER-7c659eae-ee79-5f5d-acd7-c418f8ad1d67-attr-5-key" class="er entityLabel"/></g><g transform="translate(217.13717651367188,478 )" id="entity-ORDER-36941e20-eb1d-50a3-81c5-00079b43c24a"><rect height="108" width="291.6497344970703" y="0" x="0" class="er entityBox"/><text transform="translate(145.82486724853516,12)" style="dominant-baseline: middle; text-anchor: middle; font-size: 12px;" y="0" x="0" id="text-entity-ORDER-36941e20-eb1d-50a3-81c5-00079b43c24a" class="er entityLabel">ORDER</text><rect height="21" width="55.66938781738281" y="24" x="0" class="er attributeBoxOdd"/><text transform="translate(5,34.5)" style="dominant-baseline: middle; font-size: 10.2px;" y="0" x="0" id="text-entity-ORDER-36941e20-eb1d-50a3-81c5-00079b43c24a-attr-1-type" class="er entityLabel">INT</text><rect height="21" width="107.84466552734375" y="24" x="55.66938781738281" class="er attributeBoxOdd"/><text transform="translate(60.66938781738281,34.5)" style="dominant-baseline: middle; font-size: 10.2px;" y="0" x="0" id="text-entity-ORDER-36941e20-eb1d-50a3-81c5-00079b43c24a-attr-1-name" class="er entityLabel">id</text><rect height="21" width="24.803314208984375" y="24" x="163.51405334472656" class="er attributeBoxOdd"/><text transform="translate(168.51405334472656,34.5)" style="dominant-baseline: middle; font-size: 10.2px;" y="0" x="0" id="text-entity-ORDER-36941e20-eb1d-50a3-81c5-00079b43c24a-attr-1-key" class="er entityLabel">PK</text><rect height="21" width="103.33236694335938" y="24" x="188.31736755371094" class="er attributeBoxOdd"/><text transform="translate(193.31736755371094,34.5)" style="dominant-baseline: middle; font-size: 10.2px;" y="0" x="0" id="text-entity-ORDER-36941e20-eb1d-50a3-81c5-00079b43c24a-attr-1-comment" class="er entityLabel"/><rect height="21" width="55.66938781738281" y="45" x="0" class="er attributeBoxEven"/><text transform="translate(5,55.5)" style="dominant-baseline: middle; font-size: 10.2px;" y="0" x="0" id="text-entity-ORDER-36941e20-eb1d-50a3-81c5-00079b43c24a-attr-2-type" class="er entityLabel">INT</text><rect height="21" width="107.84466552734375" y="45" x="55.66938781738281" class="er attributeBoxEven"/><text transform="translate(60.66938781738281,55.5)" style="dominant-baseline: middle; font-size: 10.2px;" y="0" x="0" id="text-entity-ORDER-36941e20-eb1d-50a3-81c5-00079b43c24a-attr-2-name" class="er entityLabel">customer_address_id</text><rect height="21" width="24.803314208984375" y="45" x="163.51405334472656" class="er attributeBoxEven"/><text transform="translate(168.51405334472656,55.5)" style="dominant-baseline: middle; font-size: 10.2px;" y="0" x="0" id="text-entity-ORDER-36941e20-eb1d-50a3-81c5-00079b43c24a-attr-2-key" class="er entityLabel">FK</text><rect height="21" width="103.33236694335938" y="45" x="188.31736755371094" class="er attributeBoxEven"/><text transform="translate(193.31736755371094,55.5)" style="dominant-baseline: middle; font-size: 10.2px;" y="0" x="0" id="text-entity-ORDER-36941e20-eb1d-50a3-81c5-00079b43c24a-attr-2-comment" class="er entityLabel"/><rect height="21" width="55.66938781738281" y="66" x="0" class="er attributeBoxOdd"/><text transform="translate(5,76.5)" style="dominant-baseline: middle; font-size: 10.2px;" y="0" x="0" id="text-entity-ORDER-36941e20-eb1d-50a3-81c5-00079b43c24a-attr-3-type" class="er entityLabel">ENUM</text><rect height="21" width="107.84466552734375" y="66" x="55.66938781738281" class="er attributeBoxOdd"/><text transform="translate(60.66938781738281,76.5)" style="dominant-baseline: middle; font-size: 10.2px;" y="0" x="0" id="text-entity-ORDER-36941e20-eb1d-50a3-81c5-00079b43c24a-attr-3-name" class="er entityLabel">status</text><rect height="21" width="24.803314208984375" y="66" x="163.51405334472656" class="er attributeBoxOdd"/><text transform="translate(168.51405334472656,76.5)" style="dominant-baseline: middle; font-size: 10.2px;" y="0" x="0" id="text-entity-ORDER-36941e20-eb1d-50a3-81c5-00079b43c24a-attr-3-key" class="er entityLabel"/><rect height="21" width="103.33236694335938" y="66" x="188.31736755371094" class="er attributeBoxOdd"/><text transform="translate(193.31736755371094,76.5)" style="dominant-baseline: middle; font-size: 10.2px;" y="0" x="0" id="text-entity-ORDER-36941e20-eb1d-50a3-81c5-00079b43c24a-attr-3-comment" class="er entityLabel">new, payed, shipped</text><rect height="21" width="55.66938781738281" y="87" x="0" class="er attributeBoxEven"/><text transform="translate(5,97.5)" style="dominant-baseline: middle; font-size: 10.2px;" y="0" x="0" id="text-entity-ORDER-36941e20-eb1d-50a3-81c5-00079b43c24a-attr-4-type" class="er entityLabel">DECIMAL</text><rect height="21" width="107.84466552734375" y="87" x="55.66938781738281" class="er attributeBoxEven"/><text transform="translate(60.66938781738281,97.5)" style="dominant-baseline: middle; font-size: 10.2px;" y="0" x="0" id="text-entity-ORDER-36941e20-eb1d-50a3-81c5-00079b43c24a-attr-4-name" class="er entityLabel">price</text><rect height="21" width="24.803314208984375" y="87" x="163.51405334472656" class="er attributeBoxEven"/><text transform="translate(168.51405334472656,97.5)" style="dominant-baseline: middle; font-size: 10.2px;" y="0" x="0" id="text-entity-ORDER-36941e20-eb1d-50a3-81c5-00079b43c24a-attr-4-key" class="er entityLabel"/><rect height="21" width="103.33236694335938" y="87" x="188.31736755371094" class="er attributeBoxEven"/><text transform="translate(193.31736755371094,97.5)" style="dominant-baseline: middle; font-size: 10.2px;" y="0" x="0" id="text-entity-ORDER-36941e20-eb1d-50a3-81c5-00079b43c24a-attr-4-comment" class="er entityLabel">DECIMAL(12,2)</text></g><g transform="translate(608.7868957519531,478 )" id="entity-PRODUCT-b14524a1-8e20-5805-a382-423fd1ec339f"><rect height="108" width="222.44625854492188" y="0" x="0" class="er entityBox"/><text transform="translate(111.22312927246094,12)" style="dominant-baseline: middle; text-anchor: middle; font-size: 12px;" y="0" x="0" id="text-entity-PRODUCT-b14524a1-8e20-5805-a382-423fd1ec339f" class="er entityLabel">PRODUCT</text><rect height="21" width="61.071044921875" y="24" x="0" class="er attributeBoxOdd"/><text transform="translate(5,34.5)" style="dominant-baseline: middle; font-size: 10.2px;" y="0" x="0" id="text-entity-PRODUCT-b14524a1-8e20-5805-a382-423fd1ec339f-attr-1-type" class="er entityLabel">INT</text><rect height="21" width="59.65373229980469" y="24" x="61.071044921875" class="er attributeBoxOdd"/><text transform="translate(66.071044921875,34.5)" style="dominant-baseline: middle; font-size: 10.2px;" y="0" x="0" id="text-entity-PRODUCT-b14524a1-8e20-5805-a382-423fd1ec339f-attr-1-name" class="er entityLabel">id</text><rect height="21" width="24.803314208984375" y="24" x="120.72477722167969" class="er attributeBoxOdd"/><text transform="translate(125.72477722167969,34.5)" style="dominant-baseline: middle; font-size: 10.2px;" y="0" x="0" id="text-entity-PRODUCT-b14524a1-8e20-5805-a382-423fd1ec339f-attr-1-key" class="er entityLabel">PK</text><rect height="21" width="76.91816711425781" y="24" x="145.52809143066406" class="er attributeBoxOdd"/><text transform="translate(150.52809143066406,34.5)" style="dominant-baseline: middle; font-size: 10.2px;" y="0" x="0" id="text-entity-PRODUCT-b14524a1-8e20-5805-a382-423fd1ec339f-attr-1-comment" class="er entityLabel"/><rect height="21" width="61.071044921875" y="45" x="0" class="er attributeBoxEven"/><text transform="translate(5,55.5)" style="dominant-baseline: middle; font-size: 10.2px;" y="0" x="0" id="text-entity-PRODUCT-b14524a1-8e20-5805-a382-423fd1ec339f-attr-2-type" class="er entityLabel">TINYTEXT</text><rect height="21" width="59.65373229980469" y="45" x="61.071044921875" class="er attributeBoxEven"/><text transform="translate(66.071044921875,55.5)" style="dominant-baseline: middle; font-size: 10.2px;" y="0" x="0" id="text-entity-PRODUCT-b14524a1-8e20-5805-a382-423fd1ec339f-attr-2-name" class="er entityLabel">name</text><rect height="21" width="24.803314208984375" y="45" x="120.72477722167969" class="er attributeBoxEven"/><text transform="translate(125.72477722167969,55.5)" style="dominant-baseline: middle; font-size: 10.2px;" y="0" x="0" id="text-entity-PRODUCT-b14524a1-8e20-5805-a382-423fd1ec339f-attr-2-key" class="er entityLabel"/><rect height="21" width="76.91816711425781" y="45" x="145.52809143066406" class="er attributeBoxEven"/><text transform="translate(150.52809143066406,55.5)" style="dominant-baseline: middle; font-size: 10.2px;" y="0" x="0" id="text-entity-PRODUCT-b14524a1-8e20-5805-a382-423fd1ec339f-attr-2-comment" class="er entityLabel"/><rect height="21" width="61.071044921875" y="66" x="0" class="er attributeBoxOdd"/><text transform="translate(5,76.5)" style="dominant-baseline: middle; font-size: 10.2px;" y="0" x="0" id="text-entity-PRODUCT-b14524a1-8e20-5805-a382-423fd1ec339f-attr-3-type" class="er entityLabel">TEXT</text><rect height="21" width="59.65373229980469" y="66" x="61.071044921875" class="er attributeBoxOdd"/><text transform="translate(66.071044921875,76.5)" style="dominant-baseline: middle; font-size: 10.2px;" y="0" x="0" id="text-entity-PRODUCT-b14524a1-8e20-5805-a382-423fd1ec339f-attr-3-name" class="er entityLabel">description</text><rect height="21" width="24.803314208984375" y="66" x="120.72477722167969" class="er attributeBoxOdd"/><text transform="translate(125.72477722167969,76.5)" style="dominant-baseline: middle; font-size: 10.2px;" y="0" x="0" id="text-entity-PRODUCT-b14524a1-8e20-5805-a382-423fd1ec339f-attr-3-key" class="er entityLabel"/><rect height="21" width="76.91816711425781" y="66" x="145.52809143066406" class="er attributeBoxOdd"/><text transform="translate(150.52809143066406,76.5)" style="dominant-baseline: middle; font-size: 10.2px;" y="0" x="0" id="text-entity-PRODUCT-b14524a1-8e20-5805-a382-423fd1ec339f-attr-3-comment" class="er entityLabel"/><rect height="21" width="61.071044921875" y="87" x="0" class="er attributeBoxEven"/><text transform="translate(5,97.5)" style="dominant-baseline: middle; font-size: 10.2px;" y="0" x="0" id="text-entity-PRODUCT-b14524a1-8e20-5805-a382-423fd1ec339f-attr-4-type" class="er entityLabel">DECIMAL</text><rect height="21" width="59.65373229980469" y="87" x="61.071044921875" class="er attributeBoxEven"/><text transform="translate(66.071044921875,97.5)" style="dominant-baseline: middle; font-size: 10.2px;" y="0" x="0" id="text-entity-PRODUCT-b14524a1-8e20-5805-a382-423fd1ec339f-attr-4-name" class="er entityLabel">unit_price</text><rect height="21" width="24.803314208984375" y="87" x="120.72477722167969" class="er attributeBoxEven"/><text transform="translate(125.72477722167969,97.5)" style="dominant-baseline: middle; font-size: 10.2px;" y="0" x="0" id="text-entity-PRODUCT-b14524a1-8e20-5805-a382-423fd1ec339f-attr-4-key" class="er entityLabel"/><rect height="21" width="76.91816711425781" y="87" x="145.52809143066406" class="er attributeBoxEven"/><text transform="translate(150.52809143066406,97.5)" style="dominant-baseline: middle; font-size: 10.2px;" y="0" x="0" id="text-entity-PRODUCT-b14524a1-8e20-5805-a382-423fd1ec339f-attr-4-comment" class="er entityLabel">DECIMAL(8,2)</text></g><g transform="translate(287.0248565673828,228 )" id="entity-ADDRESS-153346fa-a574-56cf-a80f-86d44868c0af"><rect height="150" width="151.87435913085938" y="0" x="0" class="er entityBox"/><text transform="translate(75.93717956542969,12)" style="dominant-baseline: middle; text-anchor: middle; font-size: 12px;" y="0" x="0" id="text-entity-ADDRESS-153346fa-a574-56cf-a80f-86d44868c0af" class="er entityLabel">ADDRESS</text><rect height="21" width="61.071044921875" y="24" x="0" class="er attributeBoxOdd"/><text transform="translate(5,34.5)" style="dominant-baseline: middle; font-size: 10.2px;" y="0" x="0" id="text-entity-ADDRESS-153346fa-a574-56cf-a80f-86d44868c0af-attr-1-type" class="er entityLabel">INT</text><rect height="21" width="66" y="24" x="61.071044921875" class="er attributeBoxOdd"/><text transform="translate(66.071044921875,34.5)" style="dominant-baseline: middle; font-size: 10.2px;" y="0" x="0" id="text-entity-ADDRESS-153346fa-a574-56cf-a80f-86d44868c0af-attr-1-name" class="er entityLabel">id</text><rect height="21" width="24.803314208984375" y="24" x="127.071044921875" class="er attributeBoxOdd"/><text transform="translate(132.071044921875,34.5)" style="dominant-baseline: middle; font-size: 10.2px;" y="0" x="0" id="text-entity-ADDRESS-153346fa-a574-56cf-a80f-86d44868c0af-attr-1-key" class="er entityLabel">PK</text><rect height="21" width="61.071044921875" y="45" x="0" class="er attributeBoxEven"/><text transform="translate(5,55.5)" style="dominant-baseline: middle; font-size: 10.2px;" y="0" x="0" id="text-entity-ADDRESS-153346fa-a574-56cf-a80f-86d44868c0af-attr-2-type" class="er entityLabel">TINYTEXT</text><rect height="21" width="66" y="45" x="61.071044921875" class="er attributeBoxEven"/><text transform="translate(66.071044921875,55.5)" style="dominant-baseline: middle; font-size: 10.2px;" y="0" x="0" id="text-entity-ADDRESS-153346fa-a574-56cf-a80f-86d44868c0af-attr-2-name" class="er entityLabel">full_address</text><rect height="21" width="24.803314208984375" y="45" x="127.071044921875" class="er attributeBoxEven"/><text transform="translate(132.071044921875,55.5)" style="dominant-baseline: middle; font-size: 10.2px;" y="0" x="0" id="text-entity-ADDRESS-153346fa-a574-56cf-a80f-86d44868c0af-attr-2-key" class="er entityLabel"/><rect height="21" width="61.071044921875" y="66" x="0" class="er attributeBoxOdd"/><text transform="translate(5,76.5)" style="dominant-baseline: middle; font-size: 10.2px;" y="0" x="0" id="text-entity-ADDRESS-153346fa-a574-56cf-a80f-86d44868c0af-attr-3-type" class="er entityLabel">TINYTEXT</text><rect height="21" width="66" y="66" x="61.071044921875" class="er attributeBoxOdd"/><text transform="translate(66.071044921875,76.5)" style="dominant-baseline: middle; font-size: 10.2px;" y="0" x="0" id="text-entity-ADDRESS-153346fa-a574-56cf-a80f-86d44868c0af-attr-3-name" class="er entityLabel">postal_code</text><rect height="21" width="24.803314208984375" y="66" x="127.071044921875" class="er attributeBoxOdd"/><text transform="translate(132.071044921875,76.5)" style="dominant-baseline: middle; font-size: 10.2px;" y="0" x="0" id="text-entity-ADDRESS-153346fa-a574-56cf-a80f-86d44868c0af-attr-3-key" class="er entityLabel"/><rect height="21" width="61.071044921875" y="87" x="0" class="er attributeBoxEven"/><text transform="translate(5,97.5)" style="dominant-baseline: middle; font-size: 10.2px;" y="0" x="0" id="text-entity-ADDRESS-153346fa-a574-56cf-a80f-86d44868c0af-attr-4-type" class="er entityLabel">TINYTEXT</text><rect height="21" width="66" y="87" x="61.071044921875" class="er attributeBoxEven"/><text transform="translate(66.071044921875,97.5)" style="dominant-baseline: middle; font-size: 10.2px;" y="0" x="0" id="text-entity-ADDRESS-153346fa-a574-56cf-a80f-86d44868c0af-attr-4-name" class="er entityLabel">locality</text><rect height="21" width="24.803314208984375" y="87" x="127.071044921875" class="er attributeBoxEven"/><text transform="translate(132.071044921875,97.5)" style="dominant-baseline: middle; font-size: 10.2px;" y="0" x="0" id="text-entity-ADDRESS-153346fa-a574-56cf-a80f-86d44868c0af-attr-4-key" class="er entityLabel"/><rect height="21" width="61.071044921875" y="108" x="0" class="er attributeBoxOdd"/><text transform="translate(5,118.5)" style="dominant-baseline: middle; font-size: 10.2px;" y="0" x="0" id="text-entity-ADDRESS-153346fa-a574-56cf-a80f-86d44868c0af-attr-5-type" class="er entityLabel">TINYTEXT</text><rect height="21" width="66" y="108" x="61.071044921875" class="er attributeBoxOdd"/><text transform="translate(66.071044921875,118.5)" style="dominant-baseline: middle; font-size: 10.2px;" y="0" x="0" id="text-entity-ADDRESS-153346fa-a574-56cf-a80f-86d44868c0af-attr-5-name" class="er entityLabel">state</text><rect height="21" width="24.803314208984375" y="108" x="127.071044921875" class="er attributeBoxOdd"/><text transform="translate(132.071044921875,118.5)" style="dominant-baseline: middle; font-size: 10.2px;" y="0" x="0" id="text-entity-ADDRESS-153346fa-a574-56cf-a80f-86d44868c0af-attr-5-key" class="er entityLabel"/><rect height="21" width="61.071044921875" y="129" x="0" class="er attributeBoxEven"/><text transform="translate(5,139.5)" style="dominant-baseline: middle; font-size: 10.2px;" y="0" x="0" id="text-entity-ADDRESS-153346fa-a574-56cf-a80f-86d44868c0af-attr-6-type" class="er entityLabel">TINYTEXT</text><rect height="21" width="66" y="129" x="61.071044921875" class="er attributeBoxEven"/><text transform="translate(66.071044921875,139.5)" style="dominant-baseline: middle; font-size: 10.2px;" y="0" x="0" id="text-entity-ADDRESS-153346fa-a574-56cf-a80f-86d44868c0af-attr-6-name" class="er entityLabel">country</text><rect height="21" width="24.803314208984375" y="129" x="127.071044921875" class="er attributeBoxEven"/><text transform="translate(132.071044921875,139.5)" style="dominant-baseline: middle; font-size: 10.2px;" y="0" x="0" id="text-entity-ADDRESS-153346fa-a574-56cf-a80f-86d44868c0af-attr-6-key" class="er entityLabel"/></g><g transform="translate(79.57191848754883,20 )" id="entity-CUSTOMERADDRESS-60b5ae3d-5fab-5e65-8009-ea5c77f8ac0c"><rect height="108" width="207.33062744140625" y="0" x="0" class="er entityBox"/><text transform="translate(103.66531372070312,12)" style="dominant-baseline: middle; text-anchor: middle; font-size: 12px;" y="0" x="0" id="text-entity-CUSTOMERADDRESS-60b5ae3d-5fab-5e65-8009-ea5c77f8ac0c" class="er entityLabel">CUSTOMER_ADDRESS</text><rect height="21" width="61.071044921875" y="24" x="0" class="er attributeBoxOdd"/><text transform="translate(5,34.5)" style="dominant-baseline: middle; font-size: 10.2px;" y="0" x="0" id="text-entity-CUSTOMERADDRESS-60b5ae3d-5fab-5e65-8009-ea5c77f8ac0c-attr-1-type" class="er entityLabel">INT</text><rect height="21" width="121.45626831054688" y="24" x="61.071044921875" class="er attributeBoxOdd"/><text transform="translate(66.071044921875,34.5)" style="dominant-baseline: middle; font-size: 10.2px;" y="0" x="0" id="text-entity-CUSTOMERADDRESS-60b5ae3d-5fab-5e65-8009-ea5c77f8ac0c-attr-1-name" class="er entityLabel">id</text><rect height="21" width="24.803314208984375" y="24" x="182.52731323242188" class="er attributeBoxOdd"/><text transform="translate(187.52731323242188,34.5)" style="dominant-baseline: middle; font-size: 10.2px;" y="0" x="0" id="text-entity-CUSTOMERADDRESS-60b5ae3d-5fab-5e65-8009-ea5c77f8ac0c-attr-1-key" class="er entityLabel">PK</text><rect height="21" width="61.071044921875" y="45" x="0" class="er attributeBoxEven"/><text transform="translate(5,55.5)" style="dominant-baseline: middle; font-size: 10.2px;" y="0" x="0" id="text-entity-CUSTOMERADDRESS-60b5ae3d-5fab-5e65-8009-ea5c77f8ac0c-attr-2-type" class="er entityLabel">INT</text><rect height="21" width="121.45626831054688" y="45" x="61.071044921875" class="er attributeBoxEven"/><text transform="translate(66.071044921875,55.5)" style="dominant-baseline: middle; font-size: 10.2px;" y="0" x="0" id="text-entity-CUSTOMERADDRESS-60b5ae3d-5fab-5e65-8009-ea5c77f8ac0c-attr-2-name" class="er entityLabel">user_id</text><rect height="21" width="24.803314208984375" y="45" x="182.52731323242188" class="er attributeBoxEven"/><text transform="translate(187.52731323242188,55.5)" style="dominant-baseline: middle; font-size: 10.2px;" y="0" x="0" id="text-entity-CUSTOMERADDRESS-60b5ae3d-5fab-5e65-8009-ea5c77f8ac0c-attr-2-key" class="er entityLabel">FK</text><rect height="21" width="61.071044921875" y="66" x="0" class="er attributeBoxOdd"/><text transform="translate(5,76.5)" style="dominant-baseline: middle; font-size: 10.2px;" y="0" x="0" id="text-entity-CUSTOMERADDRESS-60b5ae3d-5fab-5e65-8009-ea5c77f8ac0c-attr-3-type" class="er entityLabel">INT</text><rect height="21" width="121.45626831054688" y="66" x="61.071044921875" class="er attributeBoxOdd"/><text transform="translate(66.071044921875,76.5)" style="dominant-baseline: middle; font-size: 10.2px;" y="0" x="0" id="text-entity-CUSTOMERADDRESS-60b5ae3d-5fab-5e65-8009-ea5c77f8ac0c-attr-3-name" class="er entityLabel">address_id</text><rect height="21" width="24.803314208984375" y="66" x="182.52731323242188" class="er attributeBoxOdd"/><text transform="translate(187.52731323242188,76.5)" style="dominant-baseline: middle; font-size: 10.2px;" y="0" x="0" id="text-entity-CUSTOMERADDRESS-60b5ae3d-5fab-5e65-8009-ea5c77f8ac0c-attr-3-key" class="er entityLabel">FK</text><rect height="21" width="61.071044921875" y="87" x="0" class="er attributeBoxEven"/><text transform="translate(5,97.5)" style="dominant-baseline: middle; font-size: 10.2px;" y="0" x="0" id="text-entity-CUSTOMERADDRESS-60b5ae3d-5fab-5e65-8009-ea5c77f8ac0c-attr-4-type" class="er entityLabel">TINYTEXT</text><rect height="21" width="121.45626831054688" y="87" x="61.071044921875" class="er attributeBoxEven"/><text transform="translate(66.071044921875,97.5)" style="dominant-baseline: middle; font-size: 10.2px;" y="0" x="0" id="text-entity-CUSTOMERADDRESS-60b5ae3d-5fab-5e65-8009-ea5c77f8ac0c-attr-4-name" class="er entityLabel">user_address_nickname</text><rect height="21" width="24.803314208984375" y="87" x="182.52731323242188" class="er attributeBoxEven"/><text transform="translate(187.52731323242188,97.5)" style="dominant-baseline: middle; font-size: 10.2px;" y="0" x="0" id="text-entity-CUSTOMERADDRESS-60b5ae3d-5fab-5e65-8009-ea5c77f8ac0c-attr-4-key" class="er entityLabel"/></g><g transform="translate(600.1721343994141,249 )" id="entity-PRODUCTORDER-2e11654d-d1f0-5d18-84e3-a05a7498d845"><rect height="108" width="139.67578125" y="0" x="0" class="er entityBox"/><text transform="translate(69.837890625,12)" style="dominant-baseline: middle; text-anchor: middle; font-size: 12px;" y="0" x="0" id="text-entity-PRODUCTORDER-2e11654d-d1f0-5d18-84e3-a05a7498d845" class="er entityLabel">PRODUCT_ORDER</text><rect height="21" width="27.651107788085938" y="24" x="0" class="er attributeBoxOdd"/><text transform="translate(5,34.5)" style="dominant-baseline: middle; font-size: 10.2px;" y="0" x="0" id="text-entity-PRODUCTORDER-2e11654d-d1f0-5d18-84e3-a05a7498d845-attr-1-type" class="er entityLabel">INT</text><rect height="21" width="86.77023315429688" y="24" x="27.651107788085938" class="er attributeBoxOdd"/><text transform="translate(32.65110778808594,34.5)" style="dominant-baseline: middle; font-size: 10.2px;" y="0" x="0" id="text-entity-PRODUCTORDER-2e11654d-d1f0-5d18-84e3-a05a7498d845-attr-1-name" class="er entityLabel">id</text><rect height="21" width="25.254440307617188" y="24" x="114.42134094238281" class="er attributeBoxOdd"/><text transform="translate(119.42134094238281,34.5)" style="dominant-baseline: middle; font-size: 10.2px;" y="0" x="0" id="text-entity-PRODUCTORDER-2e11654d-d1f0-5d18-84e3-a05a7498d845-attr-1-key" class="er entityLabel">PK</text><rect height="21" width="27.651107788085938" y="45" x="0" class="er attributeBoxEven"/><text transform="translate(5,55.5)" style="dominant-baseline: middle; font-size: 10.2px;" y="0" x="0" id="text-entity-PRODUCTORDER-2e11654d-d1f0-5d18-84e3-a05a7498d845-attr-2-type" class="er entityLabel">INT</text><rect height="21" width="86.77023315429688" y="45" x="27.651107788085938" class="er attributeBoxEven"/><text transform="translate(32.65110778808594,55.5)" style="dominant-baseline: middle; font-size: 10.2px;" y="0" x="0" id="text-entity-PRODUCTORDER-2e11654d-d1f0-5d18-84e3-a05a7498d845-attr-2-name" class="er entityLabel">order_id</text><rect height="21" width="25.254440307617188" y="45" x="114.42134094238281" class="er attributeBoxEven"/><text transform="translate(119.42134094238281,55.5)" style="dominant-baseline: middle; font-size: 10.2px;" y="0" x="0" id="text-entity-PRODUCTORDER-2e11654d-d1f0-5d18-84e3-a05a7498d845-attr-2-key" class="er entityLabel">FK</text><rect height="21" width="27.651107788085938" y="66" x="0" class="er attributeBoxOdd"/><text transform="translate(5,76.5)" style="dominant-baseline: middle; font-size: 10.2px;" y="0" x="0" id="text-entity-PRODUCTORDER-2e11654d-d1f0-5d18-84e3-a05a7498d845-attr-3-type" class="er entityLabel">INT</text><rect height="21" width="86.77023315429688" y="66" x="27.651107788085938" class="er attributeBoxOdd"/><text transform="translate(32.65110778808594,76.5)" style="dominant-baseline: middle; font-size: 10.2px;" y="0" x="0" id="text-entity-PRODUCTORDER-2e11654d-d1f0-5d18-84e3-a05a7498d845-attr-3-name" class="er entityLabel">product_id</text><rect height="21" width="25.254440307617188" y="66" x="114.42134094238281" class="er attributeBoxOdd"/><text transform="translate(119.42134094238281,76.5)" style="dominant-baseline: middle; font-size: 10.2px;" y="0" x="0" id="text-entity-PRODUCTORDER-2e11654d-d1f0-5d18-84e3-a05a7498d845-attr-3-key" class="er entityLabel">FK</text><rect height="21" width="27.651107788085938" y="87" x="0" class="er attributeBoxEven"/><text transform="translate(5,97.5)" style="dominant-baseline: middle; font-size: 10.2px;" y="0" x="0" id="text-entity-PRODUCTORDER-2e11654d-d1f0-5d18-84e3-a05a7498d845-attr-4-type" class="er entityLabel">INT</text><rect height="21" width="86.77023315429688" y="87" x="27.651107788085938" class="er attributeBoxEven"/><text transform="translate(32.65110778808594,97.5)" style="dominant-baseline: middle; font-size: 10.2px;" y="0" x="0" id="text-entity-PRODUCTORDER-2e11654d-d1f0-5d18-84e3-a05a7498d845-attr-4-name" class="er entityLabel">product_quantity</text><rect height="21" width="25.254440307617188" y="87" x="114.42134094238281" class="er attributeBoxEven"/><text transform="translate(119.42134094238281,97.5)" style="dominant-baseline: middle; font-size: 10.2px;" y="0" x="0" id="text-entity-PRODUCTORDER-2e11654d-d1f0-5d18-84e3-a05a7498d845-attr-4-key" class="er entityLabel"/></g><rect height="14" width="34.6875" y="434.00555419921875" x="128.1259002685547" class="er relationshipLabelBox"/><text style="text-anchor: middle; dominant-baseline: middle; font-size: 12px;" y="441.00555419921875" x="145.4696502685547" id="rel246" class="er relationshipLabel">places</text><rect height="0" width="0" y="428" x="362.9620056152344" class="er relationshipLabelBox"/><text style="text-anchor: middle; dominant-baseline: middle; font-size: 12px;" y="428" x="362.9620056152344" id="rel247" class="er relationshipLabel"/><rect height="0" width="0" y="178.9510955810547" x="110.18253326416016" class="er relationshipLabelBox"/><text style="text-anchor: middle; dominant-baseline: middle; font-size: 12px;" y="178.9510955810547" x="110.18253326416016" id="rel248" class="er relationshipLabel"/><rect height="0" width="0" y="166.10411071777344" x="336.0882568359375" class="er relationshipLabelBox"/><text style="text-anchor: middle; dominant-baseline: middle; font-size: 12px;" y="166.10411071777344" x="336.0882568359375" id="rel249" class="er relationshipLabel"/><rect height="14" width="44.703125" y="416.04998779296875" x="514.2439575195312" class="er relationshipLabelBox"/><text style="text-anchor: middle; dominant-baseline: middle; font-size: 12px;" y="423.04998779296875" x="536.5955200195312" id="rel250" class="er relationshipLabel">contains</text><rect height="14" width="44.703125" y="408.915283203125" x="690.698486328125" class="er relationshipLabelBox"/><text style="text-anchor: middle; dominant-baseline: middle; font-size: 12px;" y="415.915283203125" x="713.050048828125" id="rel251" class="er relationshipLabel">contains</text></svg>